<?xml version="1.0" encoding="UTF-8"?>
<!DOCTYPE svg PUBLIC "-//W3C//DTD SVG 1.1//EN" "http://www.w3.org/Graphics/SVG/1.1/DTD/svg11.dtd">
<!-- Creator: CorelDRAW -->
<svg xmlns="http://www.w3.org/2000/svg" xml:space="preserve" width="3.01483in" height="0.381421in" style="shape-rendering:geometricPrecision; text-rendering:geometricPrecision; image-rendering:optimizeQuality; fill-rule:evenodd; clip-rule:evenodd"
viewBox="0 0 3.01595 0.381563"
 xmlns:xlink="http://www.w3.org/1999/xlink">
 <defs>
  <style type="text/css">
   <![CDATA[
    .fil3 {fill:#E1B434}
    .fil1 {fill:#E1B434;fill-rule:nonzero}
    .fil2 {fill:white;fill-rule:nonzero}
    .fil0 {fill:white;fill-rule:nonzero}
   ]]>
  </style>
 </defs>
 <g id="Layer_x0020_1">
  <metadata id="CorelCorpID_0Corel-Layer"/>
  <path class="fil0" d="M2.88733 0.196116c0,0.00664814 0.00440715,0.0120517 0.0132136,0.0162068 0.00880249,0.00415115 0.019523,0.00780999 0.0321498,0.0109647 0.0126346,0.00315866 0.0252614,0.00714439 0.0378881,0.0119651 0.0126307,0.00481675 0.0233473,0.0128749 0.0321537,0.0241783 0.00881037,0.0112955 0.0132096,0.0254228 0.0132096,0.042374 0,0.0255883 -0.0095508,0.0452767 -0.0286642,0.0590692 -0.0191055,0.0137965 -0.0429491,0.0206888 -0.0715345,0.0206888 -0.047179,0 -0.0805221,-0.0168055 -0.100029,-0.0504164 -0.0152143,-0.0262342 0.0436343,-0.0410665 0.0618971,-0.0218625 0.00884581,0.00930267 0.0215592,0.013954 0.0381323,0.013954 0.0229337,0 0.0343986,-0.00714439 0.0343986,-0.0214332 0,-0.00664814 -0.00440321,-0.0120517 -0.0132096,-0.0162029 -0.00881037,-0.00415509 -0.019527,-0.0078927 -0.0321576,-0.0112168 -0.0126267,-0.00332407 -0.0252535,-0.00747916 -0.0378842,-0.0124613 -0.0126267,-0.00498611 -0.0233473,-0.0128788 -0.0321537,-0.023682 -0.00880643,-0.0107993 -0.0132096,-0.0243437 -0.0132096,-0.0406254 0,-0.0245918 0.00905455,-0.0439534 0.0271676,-0.0580767 0.018113,-0.0141273 0.0406293,-0.021189 0.0675488,-0.021189 0.0202713,0 0.0387191,0.00457257 0.0553316,0.0137098 0.0157106,0.00863707 0.0282979,0.0207715 0.03777,0.0363915 0.00779818,0.0195663 -0.0458517,0.0361709 -0.0622594,0.0192473 -0.00777061,-0.00801086 -0.01805,-0.0120202 -0.0308422,-0.0120202 -0.00831018,0 -0.0152064,0.00183139 -0.0206888,0.00548236 -0.00548629,0.00365884 -0.00822747,0.00864101 -0.00822747,0.0149544z"/>
  <path class="fil0" d="M2.29964 0.329028l0 -0.203694c0.034568,-0.000960988 0.0610582,0.0139068 0.0643113,0.038538l0 0.210712c-0.0308973,0.00582894 -0.0608612,-0.00999191 -0.0643113,-0.0455563z"/>
  <path class="fil0" d="M2.33155 0.0954213c-0.0106378,0 -0.0198578,-0.00390303 -0.0276678,-0.011713 -0.00780999,-0.00781393 -0.011713,-0.0170339 -0.011713,-0.0276678 0,-0.0106339 0.00390303,-0.0199444 0.011713,-0.0279159 0.00780999,-0.00797935 0.01703,-0.0119651 0.0276678,-0.0119651 0.0109647,0 0.020354,0.00398574 0.028164,0.0119651 0.00780999,0.00797147 0.011717,0.017282 0.011717,0.0279159 0,0.0106339 -0.00390697,0.0198538 -0.011717,0.0276678 -0.00780999,0.00780999 -0.0171993,0.011713 -0.028164,0.011713z"/>
  <path class="fil0" d="M1.89205 0.0256276c0.0335715,0 0.0618222,0.0113074 0.0847481,0.0339024 0.0229298,0.022599 0.0344026,0.0503455 0.0344026,0.0832515 0,0.0328981 -0.0114728,0.0606446 -0.0344026,0.0832475 -0.0229259,0.022599 -0.0511765,0.0338945 -0.0847481,0.0338945l-0.0613102 0 0 0.114661c-0.0359031,0.0040842 -0.0672573,-0.0114373 -0.0687973,-0.0455563l0 -0.3034 0.130107 0zm0 0.169992c0.0146314,0 0.0267619,-0.00506488 0.0363954,-0.0152104 0.00964138,-0.0101298 0.0144581,-0.0226738 0.0144581,-0.0376282 0,-0.0152852 -0.00481675,-0.0279198 -0.0144581,-0.0378881 -0.00963351,-0.00997222 -0.021764,-0.0149544 -0.0363954,-0.0149544l-0.0613102 0 0 0.105681 0.0613102 0z"/>
  <path class="fil0" d="M1.63468 0.118351c0.0272503,0 0.0497705,0.0091412 0.0675488,0.0274197 0.0177783,0.0182785 0.0266674,0.0435359 0.0266674,0.0757723l0 0.153041 -0.0643035 0 0 -0.0428506 0 -0.102215c0,-0.0166164 -0.00448592,-0.0293298 -0.0134617,-0.0381362 -0.00897184,-0.00880643 -0.0209369,-0.0132096 -0.0358913,-0.0132096 -0.0166164,0 -0.0299127,0.00515152 -0.039881,0.0154546 -0.00996828,0.010303 -0.0149544,0.0257576 -0.0149544,0.0463637l0 0.134593c-0.0244697,0.0010949 -0.058703,-0.00555719 -0.0643074,-0.0421732l0 -0.207077 0.0643074 0 0 0.027912c0.01562,-0.0232606 0.0403772,-0.0348949 0.0742757,-0.0348949z"/>
  <path class="fil0" d="M1.42266 0.328969c-0.0352296,0.0350642 -0.0780999,0.0525944 -0.128615,0.0525944 -0.0505188,0 -0.0933064,-0.0175301 -0.128363,-0.0525944 -0.0350682,-0.0350603 -0.0525904,-0.0780093 -0.0525904,-0.128855 0,-0.0508536 0.0175223,-0.0938105 0.0525904,-0.128867 0.0350564,-0.0350682 0.0778439,-0.0525904 0.128363,-0.0525904 0.0505149,0 0.0933851,0.0175223 0.128615,0.0525904 0.0352296,0.0350564 0.0528425,0.0780133 0.0528425,0.128867 0,0.0508457 -0.0176129,0.0937948 -0.0528425,0.128855zm-0.208873 -0.0468521c0.0216025,0.0214332 0.0483566,0.0321458 0.0802582,0.0321458 0.0319056,0 0.0586596,-0.0107126 0.0802622,-0.0321458 0.0215986,-0.0214371 0.0323979,-0.0487741 0.0323979,-0.082003 0,-0.0332407 -0.0107993,-0.0606564 -0.0323979,-0.082259 -0.0216025,-0.0215986 -0.0483566,-0.0324058 -0.0802622,-0.0324058 -0.0319016,0 -0.0586557,0.0108072 -0.0802582,0.0324058 -0.0216025,0.0216025 -0.0324097,0.0490182 -0.0324097,0.082259 0,0.0332289 0.0108072,0.0605658 0.0324097,0.082003z"/>
  <path class="fil0" d="M1.02769 0.330788l0 -0.320115c0.0273842,-0.00205588 0.060814,0.0123826 0.0643074,0.0415155l0 0.322396c-0.0266438,0.00265847 -0.0613457,-0.00641971 -0.0643074,-0.0437958z"/>
  <path class="fil0" d="M0.817174 0.276378c0.00863707,0.03124 0.032071,0.0468639 0.0702899,0.0468639 0.0245918,0 0.0432011,-0.00831412 0.0558357,-0.0249266 0.0192985,-0.00618734 0.0557727,0.014214 0.0518382,0.0299088 -0.0245958,0.0355605 -0.0608179,0.0533387 -0.10867,0.0533387 -0.0412122,0 -0.0742757,-0.0124653 -0.0991983,-0.037384 -0.0249345,-0.0249305 -0.0373958,-0.0563359 -0.0373958,-0.094224 0,-0.0375494 0.0122999,-0.0688721 0.0368917,-0.093968 0.0245879,-0.0250881 0.0561666,-0.0376361 0.0947124,-0.0376361 0.0365648,0 0.0667217,0.0126307 0.0904825,0.0378881 0.0237608,0.0252535 0.0356432,0.0564974 0.0356432,0.093716 0,0.00831412 -0.000827079,0.0171205 -0.00249305,0.0264232l-0.187936 0zm-0.00100037 -0.0498453l0.127126 0c-0.00365884,-0.0169591 -0.0112207,-0.0295858 -0.0226856,-0.0378921 -0.0114688,-0.00831018 -0.0245052,-0.0124574 -0.0391366,-0.0124574 -0.0172741,0 -0.0315708,0.00440321 -0.0428703,0.0132057 -0.0112995,0.00880643 -0.0187786,0.021189 -0.0224335,0.0371437z"/>
  <path class="fil0" d="M0.738259 0.187148l-0.056332 0 0 0.103688c0,0.00864101 0.00216222,0.0149544 0.00648273,0.0189401 0.00432051,0.00399361 0.0106339,0.0062346 0.0189441,0.00673085 0.00830624,0.000500186 0.0186132,0.000417478 0.0309052,-0.000248124l0 0.0583249c-0.0442015,0.00498611 -0.0753588,0.000831018 -0.0934679,-0.0124613 -0.018113,-0.0132923 -0.0271676,-0.0370571 -0.0271676,-0.0712864l0 -0.103688 -0.0433705 0 0 -0.0618143 0.0433705 0 0 -0.0634843c0.0313266,-0.000547448 0.0638702,0.0157224 0.0643035,0.0634843l0.056332 0 0 0.0618143z"/>
  <path class="fil0" d="M0.536712 0.343427c-0.0255883,0.0254268 -0.0568282,0.0381362 -0.0937239,0.0381362 -0.0368799,0 -0.0680411,-0.0127095 -0.0934639,-0.0381362 -0.0254228,-0.0254268 -0.0381441,-0.0565762 -0.0381441,-0.0934718 0,-0.0368799 0.0127213,-0.0680411 0.0381441,-0.0934679 0.0254228,-0.0254189 0.0565841,-0.0381362 0.0934639,-0.0381362 0.0368956,0 0.0681356,0.0127173 0.0937239,0.0381362 0.0255922,0.0254268 0.0383922,0.056588 0.0383922,0.0934679 0,0.0368956 -0.0128,0.068045 -0.0383922,0.0934718zm-0.141828 -0.0441148c0.0128,0.0129576 0.0288296,0.0194442 0.0481045,0.0194442 0.0192788,0 0.035399,-0.00648667 0.0483605,-0.0194442 0.0129615,-0.0129615 0.0194364,-0.0294086 0.0194364,-0.049357 0,-0.0199366 -0.00647485,-0.0363836 -0.0194364,-0.049353 -0.0129615,-0.0129615 -0.0290817,-0.0194364 -0.0483605,-0.0194364 -0.0192749,0 -0.0353045,0.00647485 -0.0481045,0.0194364 -0.0127922,0.0129694 -0.0191843,0.0294165 -0.0191843,0.049353 0,0.0199484 0.00639214,0.0363954 0.0191843,0.049357z"/>
  <path class="fil1" d="M2.09884 0.299308c0.0127961,0.0129615 0.0288296,0.0194403 0.0481045,0.0194403 0.0192749,0 0.0353951,-0.00647879 0.0483566,-0.0194403 0.0129615,-0.0129615 0.0194403,-0.0294125 0.0194403,-0.049353 0,-0.0199405 -0.00647879,-0.0363915 -0.0194403,-0.049353 -0.0129615,-0.0129615 -0.0290817,-0.0194442 -0.0483566,-0.0194442 -0.0192749,0 -0.0353084,0.00648273 -0.0481045,0.0194442 -0.0127961,0.0129615 -0.0191922,0.0294125 -0.0191922,0.049353 0,0.0199405 0.00639608,0.0363915 0.0191922,0.049353z"/>
  <path class="fil0" d="M2.53659 0.118351c0.0272503,0 0.0497705,0.0091412 0.0675488,0.0274197 0.0177783,0.0182785 0.0266674,0.0435359 0.0266674,0.0757723l0 0.153041 -0.0643035 0 0 -0.0428506 0 -0.102215c0,-0.0166164 -0.00448592,-0.0293298 -0.0134617,-0.0381362 -0.00897184,-0.00880643 -0.0209369,-0.0132096 -0.0358952,-0.0132096 -0.0166125,0 -0.0299088,0.00515152 -0.039877,0.0154546 -0.00996828,0.010303 -0.0149544,0.0257576 -0.0149544,0.0463637l0 0.134593c-0.0244697,0.0010949 -0.058703,-0.00555719 -0.0643074,-0.0421732l0 -0.207077 0.0643074 0 0 0.027912c0.01562,-0.0232606 0.0403772,-0.0348949 0.0742757,-0.0348949z"/>
  <path class="fil0" d="M2.80344 0.187148l-0.056332 0 0 0.103688c0,0.00864101 0.00216222,0.0149544 0.00648273,0.0189401 0.00432051,0.00399361 0.0106339,0.0062346 0.0189441,0.00673085 0.00830624,0.000500186 0.0186132,0.000417478 0.0309052,-0.000248124l0 0.0583249c-0.0442015,0.00498611 -0.0753588,0.000831018 -0.0934679,-0.0124613 -0.018113,-0.0132923 -0.0271676,-0.0370571 -0.0271676,-0.0712864l0 -0.103688 -0.0433705 0 0 -0.0618143 0.0433705 0 0 -0.0634843c0.0313266,-0.000547448 0.0638702,0.0157224 0.0643035,0.0634843l0.056332 0 0 0.0618143z"/>
  <g id="_114378064">
   <polygon id="_114377944" class="fil2" points="0.216943,3.93847e-006 0.291624,3.93847e-006 0.291624,0.381563 0.216943,0.381563 0.216943,0.223485 0.19382,0.223485 0.0978002,0.223485 0.0746774,0.223485 0.0746774,0.28025 0,0.28025 0,3.93847e-006 0.0746774,3.93847e-006 0.0746774,0.151533 0.0978002,0.151533 0.19382,0.151533 0.216943,0.151533 "/>
   <path id="_114377824" class="fil3" d="M0.0373367 0.381559c-0.0201098,0 -0.0364191,-0.0167228 -0.0364191,-0.0373367 0,-0.0206179 0.0163092,-0.0373407 0.0364191,-0.0373407 0.0201059,0 0.0364191,0.0167228 0.0364191,0.0373407 0,0.020614 -0.0163132,0.0373367 -0.0364191,0.0373367z"/>
   <path id="_114378472" class="fil3" d="M0.145814 0.381563c-0.0201098,0 -0.0364191,-0.0167228 -0.0364191,-0.0373407 0,-0.0206179 0.0163092,-0.0373367 0.0364191,-0.0373367 0.0201059,0 0.0364151,0.0167188 0.0364151,0.0373367 0,0.0206179 -0.0163092,0.0373407 -0.0364151,0.0373407z"/>
  </g>
 </g>
</svg>
